<svg width="226" height="44" viewBox="0 0 226 44" fill="none" xmlns="http://www.w3.org/2000/svg">
<path d="M17.968 24.968C18.096 24.968 18.224 24.9947 18.352 25.048C18.48 25.0907 18.6027 25.1707 18.72 25.288L20.864 27.544C19.9253 28.7707 18.7467 29.6987 17.328 30.328C15.92 30.9467 14.2507 31.256 12.32 31.256C10.5493 31.256 8.96 30.9573 7.552 30.36C6.15467 29.752 4.96533 28.92 3.984 27.864C3.01333 26.7973 2.26667 25.5387 1.744 24.088C1.22133 22.6267 0.96 21.0427 0.96 19.336C0.96 17.5973 1.24267 16.0027 1.808 14.552C2.37333 13.0907 3.168 11.832 4.192 10.776C5.216 9.72 6.44267 8.89867 7.872 8.312C9.30133 7.72533 10.8747 7.432 12.592 7.432C13.4667 7.432 14.288 7.512 15.056 7.672C15.8347 7.82133 16.56 8.03466 17.232 8.312C17.904 8.57867 18.5227 8.904 19.088 9.288C19.6533 9.672 20.1547 10.088 20.592 10.536L18.768 12.984C18.6507 13.1333 18.512 13.272 18.352 13.4C18.192 13.5173 17.968 13.576 17.68 13.576C17.488 13.576 17.3067 13.5333 17.136 13.448C16.9653 13.3627 16.784 13.2613 16.592 13.144C16.4 13.016 16.1867 12.8827 15.952 12.744C15.728 12.5947 15.456 12.4613 15.136 12.344C14.8267 12.216 14.4587 12.1093 14.032 12.024C13.616 11.9387 13.1253 11.896 12.56 11.896C11.664 11.896 10.8427 12.0613 10.096 12.392C9.36 12.7227 8.72 13.208 8.176 13.848C7.64267 14.4773 7.22667 15.256 6.928 16.184C6.64 17.1013 6.496 18.152 6.496 19.336C6.496 20.5307 6.656 21.592 6.976 22.52C7.30667 23.448 7.74933 24.232 8.304 24.872C8.86933 25.5013 9.52533 25.9813 10.272 26.312C11.0187 26.6427 11.8187 26.808 12.672 26.808C13.1627 26.808 13.6107 26.7867 14.016 26.744C14.4213 26.6907 14.8 26.6107 15.152 26.504C15.504 26.3867 15.8347 26.2373 16.144 26.056C16.4533 25.864 16.768 25.624 17.088 25.336C17.216 25.2293 17.3547 25.144 17.504 25.08C17.6533 25.0053 17.808 24.968 17.968 24.968ZM45.5735 19.336C45.5735 21.0213 45.2802 22.5893 44.6935 24.04C44.1175 25.4907 43.3015 26.7547 42.2455 27.832C41.1895 28.8987 39.9148 29.736 38.4215 30.344C36.9388 30.952 35.2908 31.256 33.4775 31.256C31.6642 31.256 30.0108 30.952 28.5175 30.344C27.0242 29.736 25.7442 28.8987 24.6775 27.832C23.6215 26.7547 22.8002 25.4907 22.2135 24.04C21.6375 22.5893 21.3495 21.0213 21.3495 19.336C21.3495 17.6507 21.6375 16.0827 22.2135 14.632C22.8002 13.1813 23.6215 11.9227 24.6775 10.856C25.7442 9.78933 27.0242 8.952 28.5175 8.344C30.0108 7.736 31.6642 7.432 33.4775 7.432C35.2908 7.432 36.9388 7.74133 38.4215 8.36C39.9148 8.968 41.1895 9.80533 42.2455 10.872C43.3015 11.9387 44.1175 13.1973 44.6935 14.648C45.2802 16.0987 45.5735 17.6613 45.5735 19.336ZM40.0375 19.336C40.0375 18.184 39.8882 17.1493 39.5895 16.232C39.2908 15.304 38.8588 14.52 38.2935 13.88C37.7388 13.24 37.0562 12.7493 36.2455 12.408C35.4348 12.0667 34.5122 11.896 33.4775 11.896C32.4322 11.896 31.4988 12.0667 30.6775 12.408C29.8668 12.7493 29.1788 13.24 28.6135 13.88C28.0588 14.52 27.6322 15.304 27.3335 16.232C27.0348 17.1493 26.8855 18.184 26.8855 19.336C26.8855 20.4987 27.0348 21.544 27.3335 22.472C27.6322 23.3893 28.0588 24.168 28.6135 24.808C29.1788 25.448 29.8668 25.9387 30.6775 26.28C31.4988 26.6107 32.4322 26.776 33.4775 26.776C34.5122 26.776 35.4348 26.6107 36.2455 26.28C37.0562 25.9387 37.7388 25.448 38.2935 24.808C38.8588 24.168 39.2908 23.3893 39.5895 22.472C39.8882 21.544 40.0375 20.4987 40.0375 19.336ZM69.908 19.336C69.908 21.0213 69.6147 22.5787 69.028 24.008C68.452 25.4267 67.636 26.6587 66.58 27.704C65.524 28.7387 64.2493 29.5493 62.756 30.136C61.2733 30.712 59.6253 31 57.812 31H48.756V7.688H57.812C59.6253 7.688 61.2733 7.98133 62.756 8.568C64.2493 9.15466 65.524 9.96533 66.58 11C67.636 12.0347 68.452 13.2667 69.028 14.696C69.6147 16.1147 69.908 17.6613 69.908 19.336ZM64.372 19.336C64.372 18.184 64.2227 17.144 63.924 16.216C63.6253 15.288 63.1933 14.504 62.628 13.864C62.0733 13.2133 61.3907 12.7173 60.58 12.376C59.7693 12.024 58.8467 11.848 57.812 11.848H54.196V26.84H57.812C58.8467 26.84 59.7693 26.6693 60.58 26.328C61.3907 25.976 62.0733 25.48 62.628 24.84C63.1933 24.1893 63.6253 23.4 63.924 22.472C64.2227 21.544 64.372 20.4987 64.372 19.336ZM78.5398 11.848V17.288H85.8678V21.288H78.5398V26.84H88.1077V31H73.0998V7.688H88.1077V11.848H78.5398ZM112.596 19.336C112.596 21.0213 112.302 22.5787 111.716 24.008C111.14 25.4267 110.324 26.6587 109.268 27.704C108.212 28.7387 106.937 29.5493 105.444 30.136C103.961 30.712 102.313 31 100.5 31H91.4435V7.688H100.5C102.313 7.688 103.961 7.98133 105.444 8.568C106.937 9.15466 108.212 9.96533 109.268 11C110.324 12.0347 111.14 13.2667 111.716 14.696C112.302 16.1147 112.596 17.6613 112.596 19.336ZM107.06 19.336C107.06 18.184 106.91 17.144 106.612 16.216C106.313 15.288 105.881 14.504 105.316 13.864C104.761 13.2133 104.078 12.7173 103.268 12.376C102.457 12.024 101.534 11.848 100.5 11.848H96.8835V26.84H100.5C101.534 26.84 102.457 26.6693 103.268 26.328C104.078 25.976 104.761 25.48 105.316 24.84C105.881 24.1893 106.313 23.4 106.612 22.472C106.91 21.544 107.06 20.4987 107.06 19.336ZM125.003 26.92C125.718 26.92 126.299 26.8293 126.747 26.648C127.206 26.4667 127.563 26.232 127.819 25.944C128.075 25.656 128.251 25.3307 128.347 24.968C128.443 24.6053 128.491 24.2373 128.491 23.864C128.491 23.4373 128.433 23.0533 128.315 22.712C128.209 22.3707 128.017 22.0827 127.739 21.848C127.473 21.6133 127.115 21.432 126.667 21.304C126.219 21.176 125.654 21.112 124.971 21.112H121.195V26.92H125.003ZM121.195 11.736V17.496H124.011C124.609 17.496 125.147 17.4533 125.627 17.368C126.107 17.2827 126.513 17.1333 126.843 16.92C127.185 16.7067 127.441 16.4133 127.611 16.04C127.793 15.6667 127.883 15.1973 127.883 14.632C127.883 14.0773 127.814 13.6187 127.675 13.256C127.537 12.8827 127.323 12.584 127.035 12.36C126.747 12.136 126.379 11.976 125.931 11.88C125.494 11.784 124.971 11.736 124.363 11.736H121.195ZM124.363 7.688C125.974 7.688 127.345 7.83733 128.475 8.136C129.606 8.43467 130.529 8.856 131.243 9.4C131.958 9.944 132.475 10.6053 132.795 11.384C133.126 12.1627 133.291 13.032 133.291 13.992C133.291 14.5147 133.217 15.0213 133.067 15.512C132.918 15.992 132.683 16.4453 132.363 16.872C132.043 17.288 131.633 17.672 131.131 18.024C130.63 18.376 130.027 18.68 129.323 18.936C130.859 19.3093 131.995 19.912 132.731 20.744C133.467 21.576 133.835 22.6533 133.835 23.976C133.835 24.968 133.643 25.8907 133.259 26.744C132.875 27.5973 132.31 28.344 131.563 28.984C130.827 29.6133 129.915 30.1093 128.827 30.472C127.739 30.824 126.497 31 125.099 31H115.787V7.688H124.363ZM147.549 22.136V31H142.141V22.136L133.693 7.688H138.461C138.93 7.688 139.298 7.8 139.565 8.024C139.842 8.23733 140.072 8.51467 140.253 8.856L143.549 15.64C143.826 16.1733 144.077 16.6747 144.301 17.144C144.525 17.6027 144.722 18.056 144.893 18.504C145.053 18.0453 145.234 17.5867 145.437 17.128C145.65 16.6587 145.896 16.1627 146.173 15.64L149.437 8.856C149.512 8.71733 149.602 8.57867 149.709 8.44C149.816 8.30133 149.938 8.17867 150.077 8.072C150.226 7.95466 150.392 7.864 150.573 7.8C150.765 7.72533 150.973 7.688 151.197 7.688H155.997L147.549 22.136Z" fill="#F7F7F7"/>
<path d="M167.607 22.088L165.447 15.704C165.287 15.2987 165.117 14.824 164.935 14.28C164.754 13.7253 164.573 13.128 164.391 12.488C164.231 13.1387 164.061 13.7413 163.879 14.296C163.698 14.8507 163.527 15.3307 163.367 15.736L161.223 22.088H167.607ZM176.199 31H172.007C171.538 31 171.159 30.8933 170.871 30.68C170.583 30.456 170.365 30.1733 170.215 29.832L168.839 25.768H159.975L158.599 29.832C158.482 30.1307 158.269 30.4027 157.959 30.648C157.661 30.8827 157.287 31 156.839 31H152.615L161.639 7.688H167.175L176.199 31ZM190.917 12.424C190.757 12.68 190.587 12.872 190.405 13C190.235 13.128 190.011 13.192 189.733 13.192C189.488 13.192 189.221 13.1173 188.933 12.968C188.656 12.808 188.336 12.632 187.973 12.44C187.621 12.248 187.216 12.0773 186.757 11.928C186.299 11.768 185.776 11.688 185.189 11.688C184.176 11.688 183.419 11.9067 182.917 12.344C182.427 12.7707 182.181 13.352 182.181 14.088C182.181 14.5573 182.331 14.9467 182.629 15.256C182.928 15.5653 183.317 15.832 183.797 16.056C184.288 16.28 184.843 16.488 185.461 16.68C186.091 16.8613 186.731 17.0693 187.381 17.304C188.032 17.528 188.667 17.7947 189.285 18.104C189.915 18.4133 190.469 18.808 190.949 19.288C191.44 19.768 191.835 20.3547 192.133 21.048C192.432 21.7307 192.581 22.5573 192.581 23.528C192.581 24.6053 192.395 25.6133 192.021 26.552C191.648 27.4907 191.104 28.312 190.389 29.016C189.685 29.7093 188.811 30.2587 187.765 30.664C186.731 31.0587 185.552 31.256 184.229 31.256C183.504 31.256 182.763 31.1813 182.005 31.032C181.259 30.8827 180.533 30.6747 179.829 30.408C179.125 30.1307 178.464 29.8053 177.845 29.432C177.227 29.0587 176.688 28.6427 176.229 28.184L177.829 25.656C177.957 25.4747 178.123 25.3253 178.325 25.208C178.539 25.08 178.768 25.016 179.013 25.016C179.333 25.016 179.653 25.1173 179.973 25.32C180.304 25.5227 180.672 25.7467 181.077 25.992C181.493 26.2373 181.968 26.4613 182.501 26.664C183.035 26.8667 183.664 26.968 184.389 26.968C185.371 26.968 186.133 26.7547 186.677 26.328C187.221 25.8907 187.493 25.2027 187.493 24.264C187.493 23.72 187.344 23.2773 187.045 22.936C186.747 22.5947 186.352 22.312 185.861 22.088C185.381 21.864 184.832 21.6667 184.213 21.496C183.595 21.3253 182.96 21.1387 182.309 20.936C181.659 20.7227 181.024 20.4667 180.405 20.168C179.787 19.8587 179.232 19.4587 178.741 18.968C178.261 18.4667 177.872 17.848 177.573 17.112C177.275 16.3653 177.125 15.448 177.125 14.36C177.125 13.4853 177.301 12.632 177.653 11.8C178.005 10.968 178.523 10.2267 179.205 9.576C179.888 8.92533 180.725 8.408 181.717 8.024C182.709 7.62933 183.845 7.432 185.125 7.432C185.84 7.432 186.533 7.49067 187.205 7.608C187.888 7.71467 188.533 7.88 189.141 8.104C189.749 8.31733 190.315 8.57867 190.837 8.888C191.371 9.18667 191.845 9.528 192.261 9.912L190.917 12.424ZM216.108 7.688V31H210.668V21.144H201.196V31H195.756V7.688H201.196V17.432H210.668V7.688H216.108Z" fill="#FF4A57"/>
<line y1="43" x2="148" y2="43" stroke="#FF4A57" stroke-width="2"/>
<line x1="148" y1="43" x2="226" y2="43" stroke="white" stroke-width="2"/>
</svg>
